<svg xmlns="http://www.w3.org/2000/svg" width="1024" height="975" viewBox="0 0 1024 975" version="1.1"><path d="M -0 248.381 C -0 249.140, 1.612 254.203, 3.582 259.631 C 5.552 265.059, 8.243 272.650, 9.562 276.500 C 10.880 280.350, 13.572 288, 15.543 293.500 C 17.514 299, 19.949 305.975, 20.954 309 C 21.960 312.025, 25.564 322.375, 28.963 332 C 32.363 341.625, 35.744 351.300, 36.475 353.500 C 37.207 355.700, 40.374 364.700, 43.512 373.500 C 46.651 382.300, 50.045 391.975, 51.055 395 C 52.065 398.025, 54.521 405, 56.512 410.500 C 58.504 416, 60.951 422.975, 61.950 426 C 62.949 429.025, 66.552 439.375, 69.956 449 C 73.360 458.625, 76.744 468.300, 77.475 470.500 C 78.207 472.700, 81.374 481.700, 84.512 490.500 C 87.651 499.300, 91.045 508.975, 92.055 512 C 93.065 515.025, 95.521 522, 97.512 527.500 C 99.504 533, 101.950 539.975, 102.949 543 C 103.948 546.025, 107.332 555.700, 110.469 564.500 C 113.606 573.300, 116.995 582.975, 118 586 C 119.699 591.113, 122.033 597.737, 136.673 639 C 139.698 647.525, 142.994 656.975, 143.998 660 C 145.002 663.025, 148.374 672.700, 151.492 681.500 C 154.610 690.300, 157.981 699.975, 158.983 703 C 159.985 706.025, 162.448 713, 164.456 718.500 C 166.465 724, 168.931 730.975, 169.937 734 C 170.943 737.025, 174.314 746.700, 177.428 755.500 C 180.542 764.300, 185.283 777.800, 187.963 785.500 C 190.643 793.200, 194.873 805.350, 197.362 812.500 C 199.851 819.650, 203.512 830, 205.498 835.500 C 207.484 841, 209.935 847.975, 210.945 851 C 211.955 854.025, 215.319 863.700, 218.419 872.500 C 221.520 881.300, 226.132 894.575, 228.667 902 C 231.203 909.425, 233.561 915.824, 233.908 916.220 C 234.255 916.615, 252.398 875.215, 274.226 824.220 C 431.359 457.115, 457.063 396.670, 456.327 395.992 C 455.872 395.572, 437.950 389.503, 416.500 382.505 C 395.050 375.507, 370.975 367.643, 363 365.030 C 355.025 362.416, 337.025 356.546, 323 351.985 C 308.975 347.424, 287.600 340.435, 275.500 336.454 C 263.400 332.473, 238.650 324.398, 220.500 318.509 C 202.350 312.620, 180.975 305.643, 173 303.005 C 158.606 298.243, 142.929 293.127, 79.500 272.488 C 61.350 266.583, 36.403 258.432, 24.062 254.376 C 11.722 250.319, 1.259 247, 0.812 247 C 0.366 247, -0 247.621, -0 248.381" stroke="none" fill="#a3ebbb" fill-rule="evenodd"/><path d="M 626.237 1.163 C 625.556 1.844, 625 2.754, 625 3.186 C 625 3.619, 622.234 10.391, 618.853 18.236 C 615.473 26.081, 611.278 35.875, 609.531 40 C 607.785 44.125, 603.829 53.350, 600.740 60.500 C 597.652 67.650, 591.094 82.950, 586.167 94.500 C 581.240 106.050, 576.495 117.075, 575.623 119 C 574.752 120.925, 571.264 129.025, 567.872 137 C 564.481 144.975, 560.164 155.100, 558.278 159.500 C 556.392 163.900, 554.251 169.075, 553.521 171 C 552.790 172.925, 550.532 178.100, 548.502 182.500 C 546.473 186.900, 544.001 192.525, 543.010 195 C 542.020 197.475, 539.659 203.100, 537.764 207.500 C 535.870 211.900, 531.515 222.025, 528.088 230 C 524.661 237.975, 519.334 250.350, 516.251 257.500 C 513.167 264.650, 509.215 273.875, 507.469 278 C 499.062 297.857, 491.730 315.021, 489.527 320 C 487.177 325.314, 479.260 343.688, 474.447 355 C 473.160 358.025, 469.101 367.475, 465.427 376 C 461.753 384.525, 457.758 394.200, 456.549 397.500 C 455.340 400.800, 437.580 442.650, 417.081 490.500 C 284.024 801.101, 234.918 916.251, 235.338 916.671 C 235.724 917.057, 259.850 907.135, 288 895.013 C 290.475 893.948, 299.025 890.342, 307 887 C 314.975 883.658, 323.525 880.053, 326 878.987 C 328.475 877.921, 337.025 874.299, 345 870.938 C 352.975 867.577, 360.850 864.242, 362.500 863.526 C 365.163 862.372, 378.914 856.582, 396.500 849.210 C 401.834 846.973, 407.394 844.615, 423 837.967 C 425.475 836.912, 434.025 833.299, 442 829.938 C 449.975 826.577, 457.850 823.242, 459.500 822.526 C 461.150 821.811, 468.125 818.863, 475 815.975 C 481.875 813.088, 489.975 809.685, 493 808.414 C 496.025 807.143, 504.800 803.442, 512.500 800.189 C 520.200 796.935, 532.125 791.904, 539 789.008 C 545.875 786.112, 553.300 782.952, 555.500 781.986 C 557.700 781.019, 565.125 777.865, 572 774.977 C 578.875 772.088, 586.975 768.685, 590 767.414 C 593.025 766.143, 601.800 762.442, 609.500 759.189 C 617.200 755.935, 629.125 750.916, 636 748.035 C 647.762 743.106, 678.062 730.270, 688 726.006 C 690.475 724.944, 699.025 721.342, 707 718 C 714.975 714.658, 723.525 711.055, 726 709.992 C 737.165 705.197, 752.131 699, 752.545 699 C 752.795 699, 753 700.278, 753 701.840 C 753 703.402, 754.083 710.265, 755.406 717.090 C 756.729 723.916, 759.006 736.250, 760.466 744.500 C 765.849 774.912, 768.162 787.803, 770.514 800.500 C 773.060 814.244, 777.402 838.254, 781.546 861.500 C 785.225 882.135, 792.887 924.622, 796.065 942 C 797.221 948.325, 798.818 957.550, 799.612 962.500 C 802.152 978.317, 802.695 978.489, 809.827 965.750 C 812.676 960.663, 816.427 954.025, 818.165 951 C 819.902 947.975, 822.328 943.700, 823.556 941.500 C 826.228 936.713, 840.841 910.955, 843.695 906 C 844.804 904.075, 850.797 893.500, 857.013 882.500 C 863.228 871.500, 869.218 860.925, 870.324 859 C 871.430 857.075, 876.928 847.400, 882.542 837.500 C 888.156 827.600, 897.226 811.625, 902.697 802 C 908.168 792.375, 917.739 775.500, 923.965 764.500 C 930.191 753.500, 936.196 742.925, 937.310 741 C 938.423 739.075, 943.912 729.400, 949.508 719.500 C 955.103 709.600, 965.434 691.375, 972.465 679 C 983.299 659.930, 1006.518 618.956, 1013.266 607 C 1014.352 605.075, 1017.212 600.081, 1019.620 595.902 C 1023.390 589.362, 1024 587.511, 1024 582.614 C 1024 577.265, 1023.622 576.375, 1017.669 567.713 C 1014.187 562.646, 1007.798 553.325, 1003.471 547 C 999.144 540.675, 993.243 532.125, 990.357 528 C 987.472 523.875, 981.743 515.550, 977.628 509.500 C 973.512 503.450, 967.357 494.450, 963.951 489.500 C 960.544 484.550, 951.879 471.950, 944.693 461.500 C 937.508 451.050, 928.844 438.450, 925.439 433.500 C 917.049 421.301, 904.065 402.393, 892.477 385.500 C 887.195 377.800, 877.760 364.075, 871.511 355 C 865.261 345.925, 857.532 334.675, 854.334 330 C 851.137 325.325, 840.618 310.025, 830.958 296 C 821.299 281.975, 810.494 266.269, 806.948 261.097 C 803.401 255.925, 796.225 245.473, 791 237.869 C 785.775 230.265, 776.632 216.946, 770.683 208.272 C 764.734 199.597, 757.505 189.125, 754.620 185 C 751.734 180.875, 745.073 171.200, 739.816 163.500 C 734.560 155.800, 728.850 147.475, 727.129 145 C 725.407 142.525, 721.234 136.450, 717.855 131.500 C 714.477 126.550, 709.302 119.013, 706.356 114.750 C 703.410 110.487, 698.440 103.287, 695.310 98.750 C 692.181 94.213, 688.218 88.475, 686.503 86 C 684.788 83.525, 680.001 76.550, 675.865 70.500 C 663.334 52.171, 652.899 36.967, 646.538 27.772 C 643.217 22.972, 638.025 15.407, 635 10.963 C 631.975 6.518, 629.044 2.217, 628.487 1.404 C 627.682 0.231, 627.219 0.181, 626.237 1.163" stroke="none" fill="#7487a6" fill-rule="evenodd"/></svg>