<svg xmlns="http://www.w3.org/2000/svg" width="225" height="225" viewBox="0 0 225 225" version="1.1"><path d="M 167.500 21.314 C 162.987 24.024, 154.289 29.607, 142.107 37.613 C 139.691 39.201, 136.841 41.010, 135.775 41.633 C 131.371 44.207, 117.093 55.969, 110.419 62.522 C 98.107 74.609, 89.239 90.850, 82.382 113.863 C 82.045 114.996, 81.708 115.002, 80.382 113.902 C 76.990 111.087, 60.085 102.295, 47.917 97.017 C 37.615 92.549, 38.643 91.457, 36.863 108.758 C 33.227 144.116, 46.063 176.413, 66.553 183.457 L 70.201 184.711 60.186 189.856 C 54.678 192.685, 49.908 195, 49.585 195 C 49.263 195, 49 194.264, 49 193.365 C 49 192.198, 48.379 192.519, 46.829 194.491 C 43.081 199.255, 37.748 200.953, 26.463 200.978 C 17.317 200.998, 16.413 201.169, 16.282 202.905 C 16.163 204.480, 17.210 205.007, 22.319 205.942 C 25.719 206.565, 31.425 207.333, 35 207.648 C 40.798 208.160, 41.820 207.969, 44.462 205.872 C 46.090 204.580, 49.690 202.596, 52.462 201.463 C 55.233 200.331, 62.785 195.939, 69.243 191.702 C 75.702 187.466, 81.405 184, 81.917 184 C 82.428 184, 84.119 182.978, 85.673 181.728 C 89.136 178.944, 94.354 176.486, 103.350 173.401 L 110.200 171.051 113.350 173.411 C 122.805 180.496, 131.386 181.766, 143 177.801 C 152.205 174.658, 158.751 170.257, 165.579 162.623 L 171.500 156.001 184.500 155.985 C 197.918 155.969, 200.729 155.343, 199.679 152.607 C 199.254 151.499, 200.417 150.020, 203.495 147.756 C 205.930 145.965, 207.940 143.938, 207.961 143.250 C 208.016 141.487, 207.246 141.687, 204.708 144.095 C 203.494 145.247, 200.475 147.609, 198 149.345 C 193.932 152.197, 192.684 152.528, 185 152.787 C 173.765 153.166, 173.234 152.735, 176.404 145.804 C 179.240 139.604, 183.234 126.388, 185.153 116.857 C 187.051 107.427, 186.742 72.886, 184.657 61.500 C 181.943 46.678, 175.591 22.668, 173.667 19.956 C 172.610 18.467, 172.027 18.595, 167.500 21.314" stroke="none" fill="#a5d35b" fill-rule="evenodd"/></svg>